<?xml version="1.0" standalone="no"?><svg xmlns="http://www.w3.org/2000/svg" viewBox="0 0 1440 320"><path fill="#311f13" fill-opacity="1" d="M0,32L15,48C30,64,60,96,90,122.7C120,149,150,171,180,165.3C210,160,240,128,270,117.3C300,107,330,117,360,138.7C390,160,420,192,450,224C480,256,510,288,540,256C570,224,600,128,630,112C660,96,690,160,720,170.7C750,181,780,139,810,144C840,149,870,203,900,234.7C930,267,960,277,990,256C1020,235,1050,181,1080,144C1110,107,1140,85,1170,106.7C1200,128,1230,192,1260,224C1290,256,1320,256,1350,234.7C1380,213,1410,171,1425,149.3L1440,128L1440,0L1425,0C1410,0,1380,0,1350,0C1320,0,1290,0,1260,0C1230,0,1200,0,1170,0C1140,0,1110,0,1080,0C1050,0,1020,0,990,0C960,0,930,0,900,0C870,0,840,0,810,0C780,0,750,0,720,0C690,0,660,0,630,0C600,0,570,0,540,0C510,0,480,0,450,0C420,0,390,0,360,0C330,0,300,0,270,0C240,0,210,0,180,0C150,0,120,0,90,0C60,0,30,0,15,0L0,0Z"></path></svg>